# xmcd CD database file
#
# Track frame offsets:
#	150
#	90155
#	114236
#	141992
#
# Disc length: 3294 seconds
#
# Revision: 2
# Processed by: cddbd v1.5PL3 Copyright (c) Steve Scherf et al.
# Submitted via: CDex 1.50
#
DISCID=270cdc04
DTITLE=Miles Davis - On The Corner
DYEAR=1972
DGENRE=Jazz
TTITLE0=On The Corner~New York Girl~Thinkin' One Thing And Doin' Another~Vote For Miles
TTITLE1=Black Satin
TTITLE2=One And One
TTITLE3=Helen Butte~`Mr. Freedom
EXTD=YEAR: 1972
EXTT0=
EXTT1=
EXTT2=
EXTT3=
PLAYORDER=
